# xmcd
#
# Track frame offsets:
# 150
# 13262
# 32762
# 47477
# 61235
# 71848
# 89341
# 103264
# 123574
# 139318
# 157820
# 169471
# 194537
#
# Disc length: 2883 seconds
#
# Revision: 0
# Processed by: cddbd v1.4PL0 Copyright (c) Steve Scherf et al.
# Submitted via: Audion 3.0.2 (http://www.panic.com/audion/)
#
DISCID=bd0b410d
DTITLE=Piece - Piece
DYEAR=1900
DGENRE=
TTITLE0=Continual Light
TTITLE1=Once Upon a Dream
TTITLE2=Endless Cleansing
TTITLE3=Serendipitous Memories
TTITLE4=Mothers of Man
TTITLE5=Telekenetek Electrecete
TTITLE6=Gray
TTITLE7=Consequences
TTITLE8=Central District
TTITLE9=Corner Stone
TTITLE10=Crack
TTITLE11=Legends
TTITLE12=Caution
EXTD=
EXTT0=
EXTT1=
EXTT2=
EXTT3=
EXTT4=
EXTT5=
EXTT6=
EXTT7=
EXTT8=
EXTT9=
EXTT10=
EXTT11=
EXTT12=
PLAYORDER=
